<?xml version="1.0" encoding="utf-8"?>
<svg width="232px" height="30px" viewBox="0 0 232 30" version="1.1" xmlns:xlink="http://www.w3.org/1999/xlink" xmlns="http://www.w3.org/2000/svg">
  <desc>Created with Lunacy</desc>
  <g id="Logo">
    <path d="M11.5546 23.8894C9.8473 23.8894 8.37811 23.1237 7.94112 21.8312L7.94112 17.8767C8.37811 16.3837 9.96634 15.7394 11.3956 15.7394C13.6589 15.8592 15.2079 17.3921 15.2079 19.7745C15.2079 21.9525 13.6197 23.7681 11.5546 23.8894M11.6744 9.8473C10.2444 9.8473 9.01325 10.209 7.94112 10.6936L7.94112 8.11162L7.94112 4.60032L7.94112 0L3.17645 0L1.86624 0L0 0L0 6.13402L1.86624 6.13402L1.86624 8.11162L1.86624 22.9609L0 22.9609L0 29.0957L3.13651 29.0957C4.36762 29.0957 5.47891 28.651 6.39283 27.8039C8.1001 28.7724 9.3312 29.3775 11.6344 29.3775C16.8753 29.2562 21.1638 24.7772 21.1638 19.8136C21.1638 14.3654 16.5972 9.8473 11.6744 9.8473" transform="translate(0.2470625 0.5762298)" id="Fill-1" fill="#064545" stroke="none" />
    <path d="M3.05741 0L0 0L0 6.13555L1.78637 6.13555L1.78637 19.0886L7.82208 19.0886L7.82208 4.80307C7.82208 2.13888 5.67782 0 3.05741 0" transform="translate(23.16672 10.5835)" id="Fill-3" fill="#064545" stroke="none" />
    <path d="M3.09734 6.25382C4.80538 6.25382 6.15475 4.88141 6.15475 3.1465C6.15475 1.37088 4.80538 0 3.09734 0C1.39008 0 0 1.41158 0 3.1465C0 4.88141 1.39008 6.25382 3.09734 6.25382" transform="translate(24.55626 2.433638)" id="Fill-5" fill="#064545" stroke="none" />
    <path d="M3.09734 6.25382C4.80538 6.25382 6.15475 4.88141 6.15475 3.1465C6.15475 1.37088 4.80538 0 3.09734 0C1.39008 0 0 1.41158 0 3.1465C0 4.88141 1.39008 6.25382 3.09734 6.25382" transform="translate(55.04939 2.433638)" id="Fill-7" fill="#064545" stroke="none" />
    <path d="M3.05741 0L0 0L0 6.13555L1.78637 6.13555L1.78637 19.0886L7.82208 19.0886L7.82208 4.80307C7.82208 2.13888 5.67782 0 3.05741 0" transform="translate(53.65977 10.5835)" id="Fill-9" fill="#064545" stroke="none" />
    <path d="M31.1309 8.07014C31.1309 3.67258 28.3914 0 23.626 0C21.4426 0 18.6232 0.84864 17.5511 2.58202C16.0819 0.928512 14.1757 0 11.6344 0C9.72826 0 8.02099 0.685056 6.59174 1.81555C5.67782 0.726528 4.40755 0.121344 2.93837 0.121344L0 0.121344L0 6.25459L1.6681 6.25459L1.6681 19.1685L7.70381 19.1685L7.70381 7.82976C7.98106 6.37594 9.29126 5.64941 10.7604 5.64941C12.3886 5.64941 13.3018 6.77914 13.3018 8.23296L13.3018 19.1685L19.3375 19.1685L19.3375 7.86816C19.6554 6.2953 21.0847 5.64941 22.5147 5.64941L22.5539 5.64941C23.7059 5.64941 24.8172 6.45581 24.9362 7.5863L24.9362 13.8409C24.9362 16.8676 26.7633 19.1685 29.74 19.1685L33.0363 19.1685L33.0363 13.1144L31.1309 13.1144L31.1309 8.07014Z" transform="translate(64.45393 10.50347)" id="Fill-11" fill="#064545" stroke="none" />
    <path d="M8.57626 17.0281L8.57626 11.9032L12.3487 11.9032L12.3487 6.77914L8.57626 6.77914L8.57626 0L2.50138 0L2.50138 6.77914L0 6.77914L0 11.9032L2.50138 11.9032L2.50138 17.0281C2.50138 22.8803 5.36064 25.8263 11.1183 25.8263L13.4208 25.8263L13.4208 19.6523L11.5546 19.6523C9.3312 19.6109 8.57626 19.167 8.57626 17.0281" transform="translate(100.0908 3.845759)" id="Fill-13" fill="#064545" stroke="none" />
    <path d="M13.3425 11.7435C12.9055 13.0353 11.7143 13.8025 9.49018 13.8025C7.26758 13.8025 5.83757 11.8241 5.83757 9.68525C5.83757 7.30522 7.30675 5.4889 9.8473 5.4889C12.0315 5.4889 13.3425 6.86131 13.3425 7.99027L13.3425 11.7435ZM19.1793 0.243456L13.6197 0.243456L13.6197 1.00915C12.3894 0.201984 10.7612 0 9.45101 0C2.8992 0 0 5.00582 0 10.0086C0 15.2148 4.36762 19.5725 9.45101 19.5725C12.2304 19.5725 12.9846 18.9673 14.6519 17.9988C15.5658 18.846 16.6779 19.2906 17.9075 19.2906L20.9257 19.2906L20.9257 13.1558L19.1793 13.1558L19.1793 0.243456Z" transform="translate(115.2454 10.38136)" id="Fill-15" fill="#064545" stroke="none" />
    <path d="M6.71079 1.9776C6.07488 1.12896 4.20864 0.162048 3.29626 0.162048L3.01747 0.162048L0 0.162048L0 6.25536L1.7472 6.25536L1.7472 19.2092L7.78291 19.2092L7.78291 7.42502C7.90195 7.14317 8.06093 6.86054 8.33895 6.57715C8.77517 6.13402 9.48941 5.68934 10.6015 5.68934C11.3564 5.68934 12.5084 5.81069 13.2618 6.65933L16.6771 2.01754C15.3669 0.72576 13.5406 0 11.5154 0C9.29203 0 7.82285 0.72576 6.71079 1.9776" transform="translate(138.2405 10.46323)" id="Fill-17" fill="#064545" stroke="none" />
    <path d="M3.09735 6.25382C4.80461 6.25382 6.15475 4.88141 6.15475 3.1465C6.15475 1.37088 4.80461 0 3.09735 0C1.38854 0 0 1.41158 0 3.1465C0 4.88141 1.38854 6.25382 3.09735 6.25382" transform="translate(157.7802 2.433638)" id="Fill-19" fill="#064545" stroke="none" />
    <path d="M3.05664 0L0 0L0 6.13555L1.78714 6.13555L1.78714 19.0886L7.82208 19.0886L7.82208 4.80307C7.82208 2.13888 5.67783 0 3.05664 0" transform="translate(156.3907 10.5835)" id="Fill-21" fill="#064545" stroke="none" />
    <path d="M2.66035 9.56237L2.66035 10.0078L0 10.0078L0 15.5766L2.66035 15.5766L2.66035 22.9194L1.15123 22.9194L1.15123 29.0542L3.93139 29.0542C6.59175 28.9329 8.6953 26.7533 8.6953 24.1713L8.6953 15.5766L13.9377 15.5766L13.9377 10.0078L8.6953 10.0078C8.6953 8.79667 8.97408 6.17395 11.7143 6.17395L13.9377 6.17395L13.9377 0L11.7143 0C6.51187 0 2.85926 3.87226 2.66035 9.56237" transform="translate(167.185 0.617625)" id="Fill-23" fill="#064545" stroke="none" />
    <path d="M7.74221 4.59878C7.62394 2.01754 5.51808 0 2.97677 0L0 0L0 6.13248L1.66656 6.13248L1.66656 24.2112C1.7856 26.9153 3.92986 29.0542 6.47117 29.0542L9.64685 29.0542L9.64685 22.9194L7.74221 22.9194L7.74221 4.59878Z" transform="translate(182.8804 0.6177018)" id="Fill-25" fill="#064545" stroke="none" />
    <path d="M5.8368 7.30445C6.59174 6.05414 7.5456 5.04576 9.3312 5.04576C11.0377 5.04576 12.2696 6.01267 12.7465 7.30445L5.8368 7.30445ZM9.3719 0C4.24858 0 0 4.3584 0 9.72518C0 15.0927 4.24858 19.4911 9.3719 19.4911C12.3494 19.4911 14.6127 18.3606 16.5174 16.4652L14.4138 13.4784C7.62394 15.86 6.03571 12.3886 5.59872 11.6229L18.5434 11.6229L18.5434 9.72518C18.3452 4.39834 14.8109 0 9.3719 0L9.3719 0Z" transform="translate(194.3963 10.34143)" id="Fill-27" fill="#064545" stroke="none" />
    <path d="M11.5154 0C9.29203 0 7.82285 0.72576 6.71079 1.9776C6.07565 1.12896 4.20941 0.162048 3.29549 0.162048L3.01901 0.162048L0 0.162048L0 6.25613L1.7472 6.25613L1.7472 19.2092L7.78291 19.2092L7.78291 7.42502C7.90195 7.14317 8.06093 6.86131 8.33895 6.57715C8.77517 6.13402 9.48941 5.68934 10.6022 5.68934C11.3564 5.68934 12.5084 5.81069 13.2618 6.65933L16.6771 2.01754C15.3669 0.72576 13.5406 0 11.5154 0" transform="translate(214.7345 10.46308)" id="Fill-29" fill="#064545" stroke="none" />
    <path d="M4.36762 0L0 0L0 4.80154L0 6.51417L0 6.90048L5.31994 6.90048L5.31994 6.51417L5.31994 5.40672L9.48941 5.40672L0 14.2034L0 19.0472L11.9455 19.0472L12.8648 19.0472L15.4452 19.0472L15.4452 14.2034L15.4452 13.7603L12.1498 13.7603L11.9455 13.7603L7.70304 13.7603L15.4452 6.29529L15.4452 0L5.31994 0L4.36762 0Z" transform="translate(34.50969 10.62512)" id="Fill-32" fill="#064545" stroke="none" />
  </g>
</svg>