<?xml version="1.0" encoding="UTF-8"?>
<svg width="150px" height="150px" viewBox="0 0 150 150" version="1.1" xmlns="http://www.w3.org/2000/svg" xmlns:xlink="http://www.w3.org/1999/xlink">
    <!-- Generator: Sketch 47.1 (45422) - http://www.bohemiancoding.com/sketch -->
    <title>thumbnail_placeholder</title>
    <desc>Created with Sketch.</desc>
    <defs></defs>
    <g id="Page-1" stroke="none" stroke-width="1" fill="none" fill-rule="evenodd">
        <g id="thumbnail_placeholder">
            <rect id="Rectangle" fill="#D8D8D8" x="0" y="0" width="150" height="150"></rect>
            <g id="bizimtarifler-logo" opacity="0.281014969" style="mix-blend-mode: luminosity;" transform="translate(27.000000, 69.000000)" fill-rule="nonzero" fill="#064545">
                <path d="M4.913645,9.75824355 C4.18760809,9.75824355 3.56282851,9.44547358 3.37699657,8.91751851 L3.37699657,7.30220066 C3.56282851,6.69234618 4.23823037,6.42916518 4.84602954,6.42916518 C5.80850792,6.47810059 6.46722706,7.10425326 6.46722706,8.07740618 C6.46722706,8.96706663 5.79183795,9.70869543 4.913645,9.75824355 M4.96459048,4.02238448 C4.35647663,4.02238448 3.83292462,4.1701302 3.37699657,4.36807761 L3.37699657,3.31340107 L3.37699657,1.87911973 L3.37699657,0 L1.35079948,0 L0.793626853,0 L0,0 L0,2.50559918 L0.793626853,2.50559918 L0.793626853,3.31340107 L0.793626853,9.3789737 L0,9.3789737 L0,11.8848915 L1.33381482,11.8848915 C1.85734981,11.8848915 2.32993083,11.7032423 2.71857937,11.3572224 C3.44460352,11.7528312 3.96813427,12 4.9475803,12 C7.17629632,11.9504519 9,10.1208884 9,8.09337758 C9,5.86791933 7.05803306,4.02238448 4.96459048,4.02238448" id="Fill-1"></path>
                <path d="M11.1726075,4 L10,4 L10,6.57139864 L10.685126,6.57139864 L10.685126,12 L13,12 L13,6.01295852 C13,4.89640099 12.1776126,4 11.1726075,4" id="Fill-3"></path>
                <path d="M11.5097315,4 C12.3422787,4 13,3.34164559 13,2.50939746 C13,1.65762046 12.3422787,1 11.5097315,1 C10.6775645,1 10,1.67714453 10,2.50939746 C10,3.34164559 10.6775645,4 11.5097315,4" id="Fill-5"></path>
                <path d="M24.5097315,4 C25.3422787,4 26,3.34164559 26,2.50939746 C26,1.65762046 25.3422787,1 24.5097315,1 C23.6775645,1 23,1.67714453 23,2.50939746 C23,3.34164559 23.6775645,4 24.5097315,4" id="Fill-7"></path>
                <path d="M23.1726075,4 L22,4 L22,6.57139864 L22.685126,6.57139864 L22.685126,12 L25,12 L25,6.01295852 C25,4.89640099 24.1776126,4 23.1726075,4" id="Fill-9"></path>
                <path d="M38.2502126,7.3680841 C38.2502126,5.53275635 37.1722015,4 35.2969854,4 C34.4378033,4 33.3283509,4.35418108 32.9064726,5.07760962 C32.3283328,4.38751577 31.5782306,4 30.5782125,4 C29.8281339,4 29.156312,4.28590907 28.5938928,4.7577223 C28.2342593,4.30321747 27.7343997,4.05064309 27.1562678,4.05064309 L26,4.05064309 L26,6.61036179 L26.6564083,6.61036179 L26.6564083,12 L29.0314996,12 L29.0314996,7.26776117 C29.1405993,6.66100738 29.6561715,6.35778908 30.2342877,6.35778908 C30.8749951,6.35778908 31.2343453,6.82928346 31.2343453,7.43603725 L31.2343453,12 L33.6094327,12 L33.6094327,7.28378746 C33.7345284,6.62735217 34.2969673,6.35778908 34.8596816,6.35778908 L34.8751071,6.35778908 C35.3284266,6.35778908 35.7657304,6.69434124 35.8125577,7.1661528 L35.8125577,9.77651877 C35.8125577,11.0397162 36.5315335,12 37.7028844,12 L39,12 L39,9.47331299 L38.2502126,9.47331299 L38.2502126,7.3680841 Z" id="Fill-11"></path>
                <path d="M45.1951374,8.59331766 L45.1951374,6.60894515 L46.6005827,6.60894515 L46.6005827,4.62489788 L45.1951374,4.62489788 L45.1951374,2 L42.9319042,2 L42.9319042,4.62489788 L42,4.62489788 L42,6.60894515 L42.9319042,6.60894515 L42.9319042,8.59331766 C42.9319042,10.8593023 43.9971388,12 46.1421897,12 L47,12 L47,9.60941366 L46.3047359,9.60941366 C45.4763948,9.59338349 45.1951374,9.42150444 45.1951374,8.59331766" id="Fill-13"></path>
                <path d="M52.7385177,8.8 C52.550567,9.32800613 52.0382401,9.64158896 51.0816613,9.64158896 C50.1257363,9.64158896 49.5106988,8.83294418 49.5106988,7.95871759 C49.5106988,6.98591187 50.142583,6.24351514 51.2352562,6.24351514 C52.1746656,6.24351514 52.7385177,6.80446954 52.7385177,7.26591698 L52.7385177,8.8 Z M55.2488853,4.09950941 L52.8577395,4.09950941 L52.8577395,4.41247669 C52.3285959,4.08255828 51.6283183,4 51.0648146,4 C48.246926,4 47,6.04606259 47,8.09088262 C47,10.2188479 48.8784834,12 51.0648146,12 C52.2602111,12 52.5845874,11.7526325 53.3016817,11.356771 C53.6947438,11.7030528 54.1730504,11.8847771 54.7018929,11.8847771 L56,11.8847771 L56,9.37725891 L55.2488853,9.37725891 L55.2488853,4.09950941 Z" id="Fill-15"></path>
                <path d="M59.8167685,4.82360536 C59.5498534,4.47017471 58.766523,4.06748766 58.3835631,4.06748766 L58.2665445,4.06748766 L57,4.06748766 L57,6.6051517 L57.7333649,6.6051517 L57.7333649,12 L60.2667772,12 L60.2667772,7.09227662 C60.3167427,6.97489536 60.3834725,6.85718926 60.5001679,6.73916665 C60.6832657,6.55461758 60.9830588,6.36942298 61.4498444,6.36942298 C61.766704,6.36942298 62.2502413,6.41996127 62.5664714,6.77339192 L64,4.84023905 C63.4500603,4.30225517 62.6834941,4 61.8334423,4 C60.9002111,4 60.2835415,4.30225517 59.8167685,4.82360536" id="Fill-17"></path>
                <path d="M66.5097364,4 C67.3419034,4 68,3.34164559 68,2.50939746 C68,1.65762046 67.3419034,1 66.5097364,1 C65.6768138,1 65,1.67714453 65,2.50939746 C65,3.34164559 65.6768138,4 66.5097364,4" id="Fill-19"></path>
                <path d="M66.1723122,4 L65,4 L65,6.57139864 L65.6854213,6.57139864 L65.6854213,12 L68,12 L68,6.01295852 C68,4.89640099 67.1776164,4 66.1723122,4" id="Fill-21"></path>
                <path d="M70.1452463,3.62033957 L70.1452463,3.78898059 L69,3.78898059 L69,5.89734359 L70.1452463,5.89734359 L70.1452463,8.67734785 L69.4955897,8.67734785 L69.4955897,11 L70.6924127,11 C71.8376633,10.9540755 72.7432144,10.1288729 72.7432144,9.15132064 L72.7432144,5.89734359 L75,5.89734359 L75,3.78898059 L72.7432144,3.78898059 C72.7432144,3.33044345 72.8632256,2.33747444 74.042855,2.33747444 L75,2.33747444 L75,0 L74.042855,0 C71.803276,0 70.2308745,1.46604828 70.1452463,3.62033957" id="Fill-23"></path>
                <path d="M79.2102541,1.74111075 C79.1612143,0.763846191 78.2880339,0 77.2342972,0 L76,0 L76,2.32177379 L76.6910276,2.32177379 L76.6910276,9.16642688 C76.7403868,10.1902066 77.6294894,11 78.6832261,11 L80,11 L80,8.67734785 L79.2102541,8.67734785 L79.2102541,1.74111075 Z" id="Fill-25"></path>
                <path d="M82.5181143,6.99806578 C82.8438107,6.48488387 83.2553253,6.07100061 84.0256695,6.07100061 C84.7618883,6.07100061 85.293355,6.46786277 85.4990994,6.99806578 L82.5181143,6.99806578 Z M84.0432283,4 C81.8329238,4 80,5.788878 80,7.99163926 C80,10.1947042 81.8329238,12 84.0432283,12 C85.3277824,12 86.3042161,11.5359934 87.1259424,10.7580383 L86.2184065,9.53212492 C83.2891228,10.5096377 82.6039281,9.08482333 82.4154017,8.77054656 L88,8.77054656 L88,7.99163926 C87.9144925,5.80527112 86.3897236,4 84.0432283,4 L84.0432283,4 Z" id="Fill-27"></path>
                <path d="M93.8334423,4 C92.9002111,4 92.2835415,4.30225517 91.8167685,4.82360536 C91.5501766,4.47017471 90.7668462,4.06748766 90.3832399,4.06748766 L90.2671909,4.06748766 L89,4.06748766 L89,6.60547238 L89.7333649,6.60547238 L89.7333649,12 L92.2667772,12 L92.2667772,7.09227662 C92.3167427,6.97489536 92.3834725,6.85750994 92.5001679,6.73916665 C92.6832657,6.55461758 92.9830588,6.36942298 93.4501382,6.36942298 C93.766704,6.36942298 94.2502413,6.41996127 94.5664714,6.77339192 L96,4.84023905 C95.4500603,4.30225517 94.6834941,4 93.8334423,4" id="Fill-29"></path>
                <polygon id="Fill-32" points="15.6966902 4 14 4 14 6.01669117 14 6.73601159 14 6.89826536 16.0666382 6.89826536 16.0666382 6.73601159 16.0666382 6.27087236 17.686353 6.27087236 14 9.96555924 14 12 18.6404708 12 18.9975915 12 20 12 20 9.96555924 20 9.77945315 18.7198353 9.77945315 18.6404708 9.77945315 16.9924015 9.77945315 20 6.64407997 20 4 16.0666382 4"></polygon>
            </g>
        </g>
    </g>
</svg>