<?xml version="1.0" encoding="UTF-8"?>
<svg width="50px" height="42px" viewBox="0 0 50 42" version="1.1" xmlns="http://www.w3.org/2000/svg" xmlns:xlink="http://www.w3.org/1999/xlink">
    <title>EF69CE0A-0E3B-4D01-8952-F49146BC3940</title>
    <defs>
        <filter id="filter-1">
            <feColorMatrix in="SourceGraphic" type="matrix" values="0 0 0 0 0.023529 0 0 0 0 0.270588 0 0 0 0 0.270588 0 0 0 1.000000 0"></feColorMatrix>
        </filter>
        <path d="M11.3333333,8.5 C6.63891296,8.5 2.83333333,12.3055796 2.83333333,17 C2.83333333,21.6944204 6.63891296,25.5 11.3333333,25.5 L22.6666667,25.5 C27.361087,25.5 31.1666667,21.6944204 31.1666667,17 C31.1666667,12.3055796 27.361087,8.5 22.6666667,8.5 L11.3333333,8.5 Z M22.6666667,5.66666667 C28.9258938,5.66666667 34,10.7407728 34,17 C34,23.2592272 28.9258938,28.3333333 22.6666667,28.3333333 L11.3333333,28.3333333 C5.07410617,28.3333333 0,23.2592272 0,17 C0,10.7407728 5.07410617,5.66666667 11.3333333,5.66666667 L22.6666667,5.66666667 Z M11.3333333,11.3333333 C8.20371975,11.3333333 5.66666667,13.8703864 5.66666667,17 C5.66666667,20.1296136 8.20371975,22.6666667 11.3333333,22.6666667 C14.4629469,22.6666667 17,20.1296136 17,17 C17,13.8703864 14.4629469,11.3333333 11.3333333,11.3333333 Z M11.3333333,14.1666667 C12.8981401,14.1666667 14.1666667,15.4351932 14.1666667,17 C14.1666667,18.5648068 12.8981401,19.8333333 11.3333333,19.8333333 C9.76852654,19.8333333 8.5,18.5648068 8.5,17 C8.5,15.4351932 9.76852654,14.1666667 11.3333333,14.1666667 Z" id="path-2"></path>
    </defs>
    <g id="Tasarımlar" stroke="none" stroke-width="1" fill="none" fill-rule="evenodd">
        <g id="Homepage_Tutorial.3" transform="translate(-477.000000, -924.000000)">
            <g id="Group-23" transform="translate(415.000000, 900.000000)">
                <g id="Group-20" transform="translate(62.000000, 24.000000)">
                    <path d="M26.6666667,42 C33.3333333,42 40,40.9176758 40,22.9346716 C40,16.2304114 37.2259373,14.7664681 33.3333333,10.2244527 C29.0744769,5.25508179 18.7092391,-1.25532722 13.3333333,3.86934318 C6.66666667,10.2244527 0,8.89535141 0,22.9346716 C0,36.9739918 20,42 26.6666667,42 Z" id="Oval" fill="#F6FF6C" fill-rule="nonzero" opacity="0.200000003"></path>
                    <g filter="url(#filter-1)" id="toggle-left">
                        <g transform="translate(16.000000, -0.000000)">
                            <mask id="mask-3" fill="white">
                                <use xlink:href="#path-2"></use>
                            </mask>
                            <use id="Combined-Shape" fill="#000000" fill-rule="nonzero" xlink:href="#path-2"></use>
                            <g id="COLOR/-black" mask="url(#mask-3)" fill="#000000">
                                <rect id="Rectangle" x="0" y="0" width="34" height="34"></rect>
                            </g>
                        </g>
                    </g>
                </g>
            </g>
        </g>
    </g>
</svg>