<svg xmlns="http://www.w3.org/2000/svg" width="47" height="40" viewBox="0 0 47 40">
    <defs>
        <filter id="7xoahbwaga">
            <feColorMatrix in="SourceGraphic" values="0 0 0 0 0.023529 0 0 0 0 0.270588 0 0 0 0 0.270588 0 0 0 1.000000 0"/>
        </filter>
    </defs>
    <g fill="none" fill-rule="evenodd">
        <g>
            <g>
                <g>
                    <path fill="#ADD7E1" fill-rule="nonzero" d="M26.667 40C33.333 40 40 38.918 40 20.935c0-6.705-2.774-8.169-6.667-12.71-4.259-4.97-14.624-11.48-20-6.356C6.667 8.224 0 6.895 0 20.935 0 34.974 20 40 26.667 40z" opacity=".3" transform="translate(-1137 -926) translate(1075 900) translate(62 26)"/>
                    <g filter="url(#7xoahbwaga)" transform="translate(-1137 -926) translate(1075 900) translate(62 26)">
                        <g fill="#000" fill-rule="nonzero">
                            <path d="M25.924 9.612c-.868-.969-2.104-1.526-3.404-1.535h-.623c.011-.185.011-.37 0-.554-.02-4.138-3.362-7.491-7.5-7.523h-1.708C8.527.013 5.156 3.384 5.143 7.546c-.012.185-.012.37 0 .554h-.577c-1.29.014-2.515.567-3.378 1.525C.324 10.582-.1 11.858.02 13.142l1.396 12.785C1.689 28.232 3.63 29.975 5.951 30h15.184c2.32-.025 4.262-1.768 4.535-4.073l1.396-12.773c.133-1.289-.281-2.574-1.142-3.542zM8.985 3.842c.98-.985 2.314-1.538 3.704-1.534h1.708c2.89.006 5.232 2.348 5.238 5.238.012.185.012.37 0 .554H7.485c-.011-.184-.011-.37 0-.554-.008-1.384.532-2.715 1.5-3.704zM24.77 12.9l-1.396 12.785c-.119 1.145-1.087 2.013-2.239 2.007H5.951c-1.152.006-2.12-.862-2.239-2.007L2.316 12.9c-.052-.643.168-1.279.607-1.752.438-.474 1.055-.742 1.7-.74H22.52c.635.014 1.237.289 1.663.76.425.472.638 1.099.587 1.732z" transform="translate(19)"/>
                            <path d="M16.866 17.308h-2.17v-2.17c0-.637-.516-1.153-1.153-1.153s-1.154.516-1.154 1.153v2.17h-2.17c-.636 0-1.153.516-1.153 1.154 0 .637.517 1.153 1.154 1.153h2.17v2.17c0 .637.516 1.153 1.153 1.153s1.154-.516 1.154-1.153v-2.17h2.169c.637 0 1.154-.516 1.154-1.153 0-.638-.517-1.154-1.154-1.154z" transform="translate(19)"/>
                        </g>
                    </g>
                </g>
            </g>
        </g>
    </g>
</svg>
