<?xml version="1.0" encoding="UTF-8"?>
<svg width="66px" height="40px" viewBox="0 0 66 40" version="1.1" xmlns="http://www.w3.org/2000/svg" xmlns:xlink="http://www.w3.org/1999/xlink">
    <title>9965CFBE-9D55-47BF-83EA-CE082BD4CDB7</title>
    <g id="Tasarımlar" stroke="none" stroke-width="1" fill="none" fill-rule="evenodd">
        <g id="Homepage_Tutorial.3" transform="translate(-1350.000000, -926.000000)" fill-rule="nonzero">
            <g id="Group-28" transform="translate(1295.000000, 900.000000)">
                <g id="Group-10" transform="translate(55.000000, 26.000000)">
                    <path d="M26.6666667,40 C33.3333333,40 40,38.9176758 40,20.9346716 C40,14.2304114 37.2259373,12.7664681 33.3333333,8.22445265 C29.0744769,3.25508179 18.7092391,-3.25532722 13.3333333,1.86934318 C6.66666667,8.22445265 0,6.89535141 0,20.9346716 C0,34.9739918 20,40 26.6666667,40 Z" id="Oval" fill="#F4F3F0"></path>
                    <g id="istegelsin_logo_con-()-02" transform="translate(15.000000, 1.000000)">
                        <g id="Group" transform="translate(0.000000, -0.000000)" fill="#E30617">
                            <path d="M0.689692982,20.3797515 C0.500365497,20.3797515 0.324561404,20.3121345 0.202850877,20.1769006 C0.0676169591,20.0416667 -1.92178956e-15,19.879386 -1.92178956e-15,19.6900585 C-1.92178956e-15,19.500731 0.0676169591,19.3384503 0.202850877,19.2032164 C0.338084795,19.0679825 0.500365497,19.0003655 0.689692982,19.0003655 C0.879020468,19.0003655 1.04130117,19.0679825 1.17653509,19.2032164 C1.31176901,19.3384503 1.37938596,19.500731 1.37938596,19.6900585 C1.37938596,19.879386 1.31176901,20.0551901 1.17653509,20.1769006 C1.04130117,20.3121345 0.879020468,20.3797515 0.689692982,20.3797515 M0.689692982,21.5833333 C0.851973684,21.5833333 0.987207602,21.6374269 1.09539474,21.7591374 C1.20358187,21.8673246 1.27119883,22.0160819 1.27119883,22.1648392 L1.27119883,27.9122807 C1.27119883,28.0745614 1.21710526,28.2097953 1.09539474,28.3179825 C0.987207602,28.4261696 0.851973684,28.4937865 0.689692982,28.4937865 L0.676169591,28.4937865 C0.513888889,28.4937865 0.378654971,28.439693 0.270467836,28.3179825 C0.162280702,28.2097953 0.0946637427,28.0745614 0.0946637427,27.9122807 L0.0946637427,22.1648392 C0.0946637427,22.0025585 0.14875731,21.8673246 0.270467836,21.7591374 C0.392178363,21.6374269 0.527412281,21.5833333 0.689692982,21.5833333 L0.689692982,21.5833333 Z" id="Shape"></path>
                            <path d="M4.31396199,22.746345 C4.08406433,22.746345 3.88121345,22.8274854 3.71893275,22.9897661 C3.55665205,23.1520468 3.4755117,23.3548977 3.4755117,23.5847953 C3.4755117,23.9093567 3.6377924,24.1663012 3.94883041,24.3285819 C4.04349415,24.3826754 4.40862573,24.4908626 5.04422515,24.6531433 C5.51754386,24.7883772 5.86915205,24.9641813 6.08552632,25.1670322 C6.39656433,25.4645468 6.55884503,25.8837719 6.55884503,26.4517544 C6.55884503,27.0062135 6.35599415,27.4795322 5.96381579,27.8852339 C5.57163743,28.2774123 5.08479532,28.4802632 4.53033626,28.4802632 L2.88048246,28.4802632 C2.71820175,28.4802632 2.58296784,28.4261696 2.4747807,28.3044591 C2.36659357,28.1962719 2.29897661,28.061038 2.29897661,27.8987573 L2.29897661,27.8987573 C2.29897661,27.7364766 2.35307018,27.6012427 2.4747807,27.4930556 C2.58296784,27.3848684 2.71820175,27.3172515 2.88048246,27.3172515 L4.58442982,27.3172515 C4.81432749,27.3172515 5.01717836,27.2361111 5.17945906,27.0738304 C5.34173977,26.9115497 5.42288012,26.7086988 5.42288012,26.4788012 C5.42288012,26.1677632 5.26059942,25.9378655 4.9495614,25.7891082 C4.88194444,25.7620614 4.51681287,25.6403509 3.85416667,25.4645468 C3.38084795,25.3293129 3.04276316,25.1535088 2.8128655,24.9371345 C2.50182749,24.6260965 2.33954678,24.193348 2.33954678,23.6253655 C2.33954678,23.0709064 2.54239766,22.5975877 2.93457602,22.2054094 C3.32675439,21.813231 3.81359649,21.6103801 4.36805556,21.6103801 L5.53106725,21.6103801 C5.69334795,21.6103801 5.82858187,21.6644737 5.93676901,21.7861842 C6.04495614,21.8943713 6.1125731,22.0431287 6.1125731,22.191886 L6.1125731,22.2054094 C6.1125731,22.3676901 6.05847953,22.502924 5.93676901,22.6111111 C5.82858187,22.7192982 5.67982456,22.7869152 5.53106725,22.7869152 L4.31396199,22.7869152 L4.31396199,22.746345 Z" id="Path"></path>
                            <path d="M8.15460526,18.9868421 C8.31688596,18.9868421 8.45211988,19.0409357 8.56030702,19.1491228 C8.66849415,19.2573099 8.73611111,19.4060673 8.73611111,19.5548246 L8.73611111,21.5698099 L9.87207602,21.5698099 C10.0343567,21.5698099 10.1695906,21.6239035 10.2777778,21.745614 C10.3859649,21.8538012 10.4535819,22.0025585 10.4535819,22.1513158 L10.4535819,22.1648392 C10.4535819,22.3271199 10.3994883,22.4623538 10.2777778,22.5705409 C10.1695906,22.6787281 10.0343567,22.746345 9.87207602,22.746345 L8.73611111,22.746345 L8.73611111,26.6951754 C8.73611111,26.8709795 8.80372807,27.0197368 8.9254386,27.1414474 C9.04714912,27.2631579 9.19590643,27.3307749 9.37171053,27.3307749 L9.87207602,27.3307749 C10.0343567,27.3307749 10.1695906,27.3848684 10.2777778,27.5065789 C10.3859649,27.6147661 10.4535819,27.7635234 10.4535819,27.9122807 L10.4535819,27.9258041 C10.4535819,28.0880848 10.3994883,28.2233187 10.2777778,28.3315058 C10.1695906,28.439693 10.0343567,28.5073099 9.87207602,28.5073099 L9.37171053,28.5073099 C8.87134503,28.5073099 8.45211988,28.3315058 8.0869883,27.9798977 C7.73538012,27.6282895 7.55957602,27.1955409 7.55957602,26.7086988 L7.55957602,19.5818713 C7.55957602,19.4195906 7.61366959,19.2843567 7.73538012,19.1761696 C7.84356725,19.0679825 7.97880117,19.0138889 8.14108187,19.0138889 L8.15460526,19.0138889 L8.15460526,18.9868421 Z" id="Path"></path>
                            <path d="M17.7291667,23.5983187 C17.7967836,23.747076 17.7967836,23.8958333 17.7426901,24.0445906 C17.6885965,24.193348 17.5804094,24.3015351 17.4451754,24.369152 C16.8501462,24.6396199 16.0793129,24.9912281 15.119152,25.4239766 C13.9290936,25.9649123 13.1447368,26.3165205 12.7931287,26.4788012 C13.252924,27.060307 13.8479532,27.3578216 14.5917398,27.3578216 C15.0921053,27.3578216 15.5383772,27.2090643 15.9305556,26.9250731 C16.3227339,26.6410819 16.5932018,26.2759503 16.7419591,25.8296784 C16.8366228,25.5727339 17.0259503,25.4375 17.2964181,25.4375 C17.499269,25.4375 17.6480263,25.5186404 17.7697368,25.6809211 C17.877924,25.8432018 17.9049708,26.0190058 17.8373538,26.2083333 C17.6074561,26.8980263 17.188231,27.438962 16.5932018,27.8717105 C15.9846491,28.3044591 15.3220029,28.5208333 14.5782164,28.5208333 C13.6315789,28.5208333 12.806652,28.1827485 12.1304825,27.5065789 C11.4543129,26.8304094 11.1162281,26.0190058 11.1162281,25.058845 C11.1162281,24.0986842 11.4543129,23.2872807 12.1304825,22.6111111 C12.806652,21.9349415 13.6180556,21.5968567 14.5782164,21.5968567 C15.2679094,21.5968567 15.8899854,21.7861842 16.4579678,22.1648392 C17.0394737,22.502924 17.4586988,22.9897661 17.7291667,23.5983187 M14.5917398,22.7598684 C13.9561404,22.7598684 13.4152047,22.9897661 12.9689327,23.436038 C12.5226608,23.8823099 12.3062865,24.4232456 12.3062865,25.058845 C12.3062865,25.1670322 12.3198099,25.2887427 12.3333333,25.3969298 L16.3362573,23.5847953 C15.8899854,23.0303363 15.2949561,22.7598684 14.5917398,22.7598684 Z" id="Shape"></path>
                            <path d="M22.3000731,29.9137427 C22.8815789,29.9137427 23.3954678,29.683845 23.8687865,29.2375731 C24.3556287,28.7777778 24.5855263,28.2368421 24.5855263,27.6282895 L24.5855263,27.6147661 C23.9364035,28.1962719 23.1655702,28.4802632 22.3000731,28.4802632 C21.3399123,28.4802632 20.5285088,28.1421784 19.8523392,27.4660088 C19.1761696,26.7898392 18.8380848,25.9784357 18.8380848,25.0182749 C18.8380848,24.058114 19.1761696,23.2467105 19.8523392,22.5705409 C20.5285088,21.8943713 21.3399123,21.5562865 22.3000731,21.5562865 C23.2467105,21.5562865 24.058114,21.8943713 24.7342836,22.5570175 C25.4104532,23.2331871 25.748538,24.0445906 25.748538,24.9912281 L25.748538,27.6282895 C25.748538,28.5614035 25.3834064,29.372807 24.6531433,30.0760234 C23.9499269,30.752193 23.1655702,31.0902778 22.2865497,31.0902778 C20.9342105,31.0902778 19.9199561,30.5628655 19.2437865,29.5215643 C19.1491228,29.3592836 19.122076,29.1970029 19.1761696,29.0211988 C19.2302632,28.8453947 19.3519737,28.7236842 19.5277778,28.6560673 L19.5413012,28.6560673 C19.8252924,28.5614035 20.0551901,28.6290205 20.2174708,28.8859649 C20.7043129,29.5756579 21.3804825,29.9137427 22.3000731,29.9137427 M24.5720029,24.9912281 C24.5584795,24.369152 24.3421053,23.8417398 23.8823099,23.4089912 C23.436038,22.9762427 22.9086257,22.746345 22.2865497,22.746345 C21.6509503,22.746345 21.1100146,22.9762427 20.6637427,23.4225146 C20.2174708,23.8687865 20.0010965,24.4097222 20.0010965,25.0317982 C20.0010965,25.6673977 20.2174708,26.2083333 20.6637427,26.6546053 C21.1100146,27.1008772 21.6509503,27.3172515 22.2865497,27.3172515 C22.9221491,27.3172515 23.4630848,27.1008772 23.8958333,26.6546053 C24.3421053,26.2083333 24.5720029,25.6673977 24.5720029,25.0317982 L24.5720029,24.9912281 L24.5720029,24.9912281 Z" id="Shape"></path>
                            <path d="M33.2675439,23.5983187 C33.3351608,23.747076 33.3351608,23.8958333 33.2810673,24.0445906 C33.2269737,24.193348 33.1187865,24.3015351 32.9835526,24.369152 C32.3885234,24.6396199 31.6176901,24.9912281 30.6575292,25.4239766 C29.4674708,25.9649123 28.683114,26.3165205 28.3315058,26.4788012 C28.7913012,27.060307 29.3863304,27.3578216 30.130117,27.3578216 C30.6304825,27.3578216 31.0767544,27.2090643 31.4689327,26.9250731 C31.8611111,26.6410819 32.1315789,26.2759503 32.2803363,25.8296784 C32.375,25.5727339 32.5643275,25.4375 32.8347953,25.4375 C33.0376462,25.4375 33.1864035,25.5186404 33.308114,25.6809211 C33.4163012,25.8432018 33.443348,26.0190058 33.375731,26.2083333 C33.1458333,26.8980263 32.7266082,27.438962 32.1315789,27.8717105 C31.5230263,28.3044591 30.8603801,28.5208333 30.1165936,28.5208333 C29.1699561,28.5208333 28.3450292,28.1827485 27.6688596,27.5065789 C26.9926901,26.8304094 26.6546053,26.0190058 26.6546053,25.058845 C26.6546053,24.0986842 26.9926901,23.2872807 27.6688596,22.6111111 C28.3450292,21.9349415 29.1564327,21.5968567 30.1165936,21.5968567 C30.8062865,21.5968567 31.4283626,21.7861842 31.996345,22.1648392 C32.5778509,22.502924 32.997076,22.9897661 33.2675439,23.5983187 M30.130117,22.7598684 C29.4945175,22.7598684 28.9535819,22.9897661 28.5073099,23.436038 C28.061038,23.8823099 27.8446637,24.4232456 27.8446637,25.058845 C27.8446637,25.1670322 27.8581871,25.2887427 27.8717105,25.3969298 L31.8746345,23.5847953 C31.4148392,23.0303363 30.8333333,22.7598684 30.130117,22.7598684 Z" id="Shape"></path>
                            <path d="M35.1878655,18.9868421 C35.3501462,18.9868421 35.4853801,19.0409357 35.5935673,19.1491228 C35.7017544,19.2573099 35.7693713,19.4060673 35.7693713,19.5548246 L35.7693713,27.9122807 C35.7693713,28.0745614 35.7152778,28.2097953 35.5935673,28.3179825 C35.4853801,28.4261696 35.3501462,28.4937865 35.1878655,28.4937865 L35.1743421,28.4937865 C35.0120614,28.4937865 34.8768275,28.439693 34.7686404,28.3179825 C34.6604532,28.2097953 34.5928363,28.0745614 34.5928363,27.9122807 L34.5928363,19.5548246 C34.5928363,19.3925439 34.6469298,19.2573099 34.7686404,19.1491228 C34.8768275,19.0409357 35.0120614,18.9868421 35.1743421,18.9868421 L35.1878655,18.9868421 Z" id="Path"></path>
                            <path d="M39.0555556,22.746345 C38.8256579,22.746345 38.622807,22.8274854 38.4605263,22.9897661 C38.2982456,23.1520468 38.2171053,23.3548977 38.2171053,23.5847953 C38.2171053,23.9093567 38.379386,24.1663012 38.690424,24.3285819 C38.7850877,24.3826754 39.1502193,24.4908626 39.7858187,24.6531433 C40.2591374,24.7883772 40.6107456,24.9641813 40.8271199,25.1670322 C41.1381579,25.4645468 41.3004386,25.8837719 41.3004386,26.4517544 C41.3004386,27.0062135 41.0975877,27.4795322 40.7054094,27.8852339 C40.313231,28.2774123 39.8263889,28.4802632 39.2719298,28.4802632 L37.622076,28.4802632 C37.4597953,28.4802632 37.3245614,28.4261696 37.2163743,28.3044591 C37.1081871,28.1962719 37.0405702,28.061038 37.0405702,27.8987573 L37.0405702,27.8987573 C37.0405702,27.7364766 37.0946637,27.6012427 37.2163743,27.4930556 C37.3245614,27.3848684 37.4597953,27.3172515 37.622076,27.3172515 L39.3395468,27.3172515 C39.5694444,27.3172515 39.7722953,27.2361111 39.934576,27.0738304 C40.0968567,26.9115497 40.1779971,26.7086988 40.1779971,26.4788012 C40.1779971,26.1677632 40.0157164,25.9378655 39.7046784,25.7891082 C39.6370614,25.7620614 39.2719298,25.6403509 38.6092836,25.4645468 C38.1359649,25.3293129 37.7978801,25.1535088 37.5679825,24.9371345 C37.2569444,24.6260965 37.0946637,24.193348 37.0946637,23.6253655 C37.0946637,23.0709064 37.2975146,22.5975877 37.689693,22.2054094 C38.0818713,21.813231 38.5687135,21.6103801 39.1231725,21.6103801 L40.2861842,21.6103801 C40.4484649,21.6103801 40.5836988,21.6644737 40.691886,21.7861842 C40.8000731,21.8943713 40.8676901,22.0431287 40.8676901,22.191886 L40.8676901,22.2054094 C40.8676901,22.3676901 40.8135965,22.502924 40.691886,22.6111111 C40.5836988,22.7192982 40.4349415,22.7869152 40.2861842,22.7869152 L39.0555556,22.7869152 L39.0555556,22.746345 Z" id="Path"></path>
                            <path d="M43.0314327,20.3797515 C42.8421053,20.3797515 42.6663012,20.3121345 42.5445906,20.1769006 C42.4093567,20.0416667 42.3417398,19.879386 42.3417398,19.6900585 C42.3417398,19.500731 42.4093567,19.3384503 42.5445906,19.2032164 C42.6798246,19.0679825 42.8421053,19.0003655 43.0314327,19.0003655 C43.2207602,19.0003655 43.3830409,19.0679825 43.5182749,19.2032164 C43.6535088,19.3384503 43.7211257,19.500731 43.7211257,19.6900585 C43.7211257,19.879386 43.6535088,20.0551901 43.5182749,20.1769006 C43.3830409,20.3121345 43.2207602,20.3797515 43.0314327,20.3797515 M43.0314327,21.5833333 C43.1937135,21.5833333 43.3289474,21.6374269 43.4371345,21.7591374 C43.5453216,21.8673246 43.6129386,22.0160819 43.6129386,22.1648392 L43.6129386,27.9122807 C43.6129386,28.0745614 43.558845,28.2097953 43.4371345,28.3179825 C43.3289474,28.4261696 43.1937135,28.4937865 43.0314327,28.4937865 L43.0179094,28.4937865 C42.8556287,28.4937865 42.7203947,28.439693 42.6122076,28.3179825 C42.5040205,28.2097953 42.4364035,28.0745614 42.4364035,27.9122807 L42.4364035,22.1648392 C42.4364035,22.0025585 42.4904971,21.8673246 42.6122076,21.7591374 C42.7203947,21.6374269 42.869152,21.5833333 43.0314327,21.5833333 L43.0314327,21.5833333 Z" id="Shape"></path>
                            <path d="M45.9119152,27.9122807 C45.9119152,28.0745614 45.8578216,28.2097953 45.7361111,28.3179825 C45.627924,28.4261696 45.4926901,28.4937865 45.3304094,28.4937865 L45.316886,28.4937865 C45.1546053,28.4937865 45.0193713,28.439693 44.9111842,28.3179825 C44.8029971,28.2097953 44.7353801,28.0745614 44.7353801,27.9122807 L44.7353801,24.4502924 C44.7353801,23.6524123 45.0193713,22.9762427 45.5738304,22.4217836 C46.1282895,21.8538012 46.8179825,21.5833333 47.6023392,21.5833333 C48.3866959,21.5833333 49.0628655,21.8673246 49.630848,22.4217836 C50.1988304,22.9762427 50.4692982,23.6659357 50.4692982,24.4502924 L50.4692982,27.9122807 C50.4692982,28.0745614 50.4152047,28.2097953 50.2934942,28.3179825 C50.185307,28.4261696 50.0500731,28.4937865 49.8877924,28.4937865 L49.8877924,28.4937865 C49.7255117,28.4937865 49.5902778,28.439693 49.4820906,28.3179825 C49.3739035,28.2097953 49.3062865,28.0745614 49.3062865,27.9122807 L49.3062865,24.4502924 C49.3062865,23.9769737 49.1440058,23.5847953 48.8059211,23.2467105 C48.4678363,22.9086257 48.0756579,22.746345 47.6023392,22.746345 C47.1290205,22.746345 46.7233187,22.9086257 46.3987573,23.2467105 C46.0741959,23.5847953 45.8983918,23.9769737 45.8983918,24.4502924 L45.8983918,27.9122807 L45.9119152,27.9122807 Z" id="Path"></path>
                            <path d="M17.8914474,3.42141813 L15.876462,6.89692982 C21.9755117,8.7496345 28.4937865,8.7496345 34.5928363,6.89692982 L32.5778509,3.42141813 C27.75,4.48976608 22.7328216,4.48976608 17.8914474,3.42141813" id="Path"></path>
                            <path d="M33.619152,13.3881579 L35.1743421,10.6834795 C35.5124269,10.1019737 35.620614,9.42580409 35.4989035,8.79020468 C28.818348,10.8998538 21.6509503,10.8998538 14.9703947,8.79020468 C14.8486842,9.42580409 14.9568713,10.1019737 15.2949561,10.6834795 L16.8501462,13.3881579 C22.3406433,14.8622076 28.128655,14.8622076 33.619152,13.3881579" id="Path"></path>
                            <path d="M18.2836257,15.8494152 L19.0679825,17.2152778 C19.568348,18.0672515 20.4744152,18.5946637 21.4616228,18.5946637 L29.0076754,18.5946637 C29.994883,18.5946637 30.9144737,18.0672515 31.4013158,17.2152778 L32.1856725,15.8494152 C27.6012427,16.809576 22.8680556,16.809576 18.2836257,15.8494152" id="Path"></path>
                            <path d="M31.4959795,1.54166667 L31.4013158,1.37938596 C30.9009503,0.527412281 29.994883,-3.84357913e-15 29.0076754,-3.84357913e-15 L21.4616228,-3.84357913e-15 C20.4744152,-3.84357913e-15 19.5548246,0.527412281 19.0679825,1.37938596 L18.9733187,1.54166667 C23.1114766,2.36659357 27.3578216,2.36659357 31.4959795,1.54166667" id="Path"></path>
                        </g>
                        <g id="Group" transform="translate(0.094664, 32.199196)" fill="#3D3D3B">
                            <path d="M3.75950292,2.17726608 L3.75950292,3.62426901 C3.75950292,3.69188596 3.74597953,3.74597953 3.70540936,3.78654971 C3.66483918,3.82711988 3.61074561,3.84064327 3.55665205,3.84064327 C3.50255848,3.84064327 3.43494152,3.82711988 3.39437135,3.78654971 C3.35380117,3.74597953 3.32675439,3.69188596 3.32675439,3.62426901 L3.32675439,2.19078947 C3.32675439,1.94736842 3.28618421,1.78508772 3.20504386,1.67690058 C3.12390351,1.56871345 2.98866959,1.51461988 2.79934211,1.51461988 C2.58296784,1.51461988 2.40716374,1.58223684 2.28545322,1.73099415 C2.16374269,1.87975146 2.09612573,2.06907895 2.09612573,2.32602339 L2.09612573,3.62426901 C2.09612573,3.69188596 2.06907895,3.74597953 2.02850877,3.78654971 C1.9879386,3.82711988 1.93384503,3.84064327 1.86622807,3.84064327 C1.79861111,3.84064327 1.74451754,3.82711988 1.71747076,3.78654971 C1.67690058,3.74597953 1.66337719,3.69188596 1.66337719,3.62426901 L1.66337719,2.19078947 C1.66337719,1.94736842 1.62280702,1.78508772 1.54166667,1.67690058 C1.46052632,1.56871345 1.3252924,1.51461988 1.13596491,1.51461988 C0.919590643,1.51461988 0.757309942,1.58223684 0.622076023,1.73099415 C0.500365497,1.87975146 0.432748538,2.06907895 0.432748538,2.32602339 L0.432748538,3.62426901 C0.432748538,3.69188596 0.419225146,3.74597953 0.378654971,3.78654971 C0.338084795,3.82711988 0.283991228,3.84064327 0.229897661,3.84064327 C0.175804094,3.84064327 0.108187135,3.82711988 0.0676169591,3.78654971 C0.0270467836,3.74597953 -5.76536869e-15,3.69188596 -5.76536869e-15,3.62426901 L-5.76536869e-15,1.37938596 C-5.76536869e-15,1.31176901 0.0270467836,1.25767544 0.0676169591,1.23062865 C0.108187135,1.19005848 0.162280702,1.17653509 0.229897661,1.17653509 C0.283991228,1.17653509 0.338084795,1.19005848 0.378654971,1.23062865 C0.419225146,1.27119883 0.432748538,1.3252924 0.432748538,1.37938596 L0.432748538,1.63633041 C0.513888889,1.4875731 0.622076023,1.36586257 0.757309942,1.28472222 C0.89254386,1.20358187 1.05482456,1.1630117 1.24415205,1.1630117 C1.6498538,1.1630117 1.92032164,1.33881579 2.04203216,1.67690058 C2.12317251,1.51461988 2.23135965,1.39290936 2.38011696,1.29824561 C2.52887427,1.20358187 2.70467836,1.1630117 2.90752924,1.1630117 C3.4619883,1.1494883 3.75950292,1.50109649 3.75950292,2.17726608 Z" id="Path"></path>
                            <path d="M6.58589181,2.17726608 L6.58589181,3.62426901 C6.58589181,3.69188596 6.57236842,3.74597953 6.53179825,3.77302632 C6.49122807,3.81359649 6.4371345,3.82711988 6.38304094,3.82711988 C6.32894737,3.82711988 6.26133041,3.81359649 6.23428363,3.77302632 C6.19371345,3.73245614 6.18019006,3.67836257 6.18019006,3.62426901 L6.18019006,3.36732456 C6.1125731,3.51608187 6.00438596,3.6377924 5.86915205,3.71893275 C5.73391813,3.8000731 5.57163743,3.84064327 5.38230994,3.84064327 C5.22002924,3.84064327 5.05774854,3.81359649 4.92251462,3.73245614 C4.7872807,3.66483918 4.66557018,3.57017544 4.58442982,3.44846491 C4.50328947,3.32675439 4.4627193,3.19152047 4.4627193,3.04276316 C4.4627193,2.85343567 4.51681287,2.69115497 4.61147661,2.58296784 C4.70614035,2.4747807 4.86842105,2.39364035 5.09831871,2.35307018 C5.32821637,2.29897661 5.63925439,2.28545322 6.04495614,2.28545322 L6.16666667,2.28545322 L6.16666667,2.10964912 C6.16666667,1.89327485 6.12609649,1.74451754 6.03143275,1.63633041 C5.93676901,1.52814327 5.80153509,1.4875731 5.6122076,1.4875731 C5.36878655,1.4875731 5.1253655,1.55519006 4.88194444,1.69042398 C4.7872807,1.74451754 4.71966374,1.78508772 4.67909357,1.78508772 C4.63852339,1.78508772 4.59795322,1.77156433 4.57090643,1.73099415 C4.54385965,1.70394737 4.53033626,1.66337719 4.53033626,1.60928363 C4.53033626,1.55519006 4.54385965,1.51461988 4.57090643,1.47404971 C4.59795322,1.43347953 4.65204678,1.39290936 4.71966374,1.36586257 C4.84137427,1.29824561 4.99013158,1.24415205 5.13888889,1.20358187 C5.30116959,1.1630117 5.4499269,1.13596491 5.6122076,1.13596491 C6.26133041,1.1494883 6.58589181,1.4875731 6.58589181,2.17726608 Z M5.9502924,3.2997076 C6.08552632,3.15095029 6.15314327,2.9751462 6.15314327,2.74524854 L6.15314327,2.59649123 L6.05847953,2.59649123 C5.74744152,2.59649123 5.50402047,2.61001462 5.34173977,2.6370614 C5.17945906,2.66410819 5.05774854,2.70467836 4.99013158,2.77229532 C4.92251462,2.83991228 4.88194444,2.92105263 4.88194444,3.04276316 C4.88194444,3.17799708 4.93603801,3.2997076 5.03070175,3.38084795 C5.1253655,3.4619883 5.26059942,3.51608187 5.40935673,3.51608187 C5.63925439,3.51608187 5.81505848,3.43494152 5.9502924,3.2997076 Z" id="Shape"></path>
                            <path d="M8.88486842,1.33881579 C8.88486842,1.39290936 8.87134503,1.44700292 8.83077485,1.47404971 C8.80372807,1.50109649 8.7496345,1.52814327 8.66849415,1.54166667 L8.50621345,1.55519006 C8.2627924,1.58223684 8.0869883,1.66337719 7.97880117,1.8121345 C7.85709064,1.96089181 7.80299708,2.13669591 7.80299708,2.32602339 L7.80299708,3.62426901 C7.80299708,3.69188596 7.78947368,3.74597953 7.74890351,3.78654971 C7.70833333,3.82711988 7.65423977,3.84064327 7.6001462,3.84064327 C7.54605263,3.84064327 7.47843567,3.82711988 7.4378655,3.78654971 C7.39729532,3.74597953 7.37024854,3.69188596 7.37024854,3.62426901 L7.37024854,1.37938596 C7.37024854,1.31176901 7.39729532,1.25767544 7.4378655,1.21710526 C7.47843567,1.17653509 7.53252924,1.1630117 7.58662281,1.1630117 C7.64071637,1.1630117 7.69480994,1.17653509 7.73538012,1.21710526 C7.77595029,1.25767544 7.78947368,1.31176901 7.78947368,1.36586257 L7.78947368,1.66337719 C7.87061404,1.50109649 7.96527778,1.39290936 8.1005117,1.31176901 C8.23574561,1.23062865 8.39802632,1.17653509 8.57383041,1.1630117 L8.65497076,1.1630117 C8.80372807,1.1494883 8.88486842,1.21710526 8.88486842,1.33881579 Z" id="Path"></path>
                            <path d="M11.4137427,3.6377924 C11.4137427,3.69188596 11.4002193,3.73245614 11.3596491,3.77302632 C11.3190789,3.81359649 11.2785088,3.82711988 11.2244152,3.82711988 C11.183845,3.82711988 11.1297515,3.8000731 11.0756579,3.75950292 L9.68274854,2.55592105 L9.68274854,3.61074561 C9.68274854,3.67836257 9.65570175,3.73245614 9.61513158,3.77302632 C9.5745614,3.81359649 9.52046784,3.82711988 9.46637427,3.82711988 C9.39875731,3.82711988 9.34466374,3.81359649 9.30409357,3.77302632 C9.26352339,3.73245614 9.23647661,3.67836257 9.23647661,3.61074561 L9.23647661,0.216374269 C9.23647661,0.14875731 9.26352339,0.0946637427 9.30409357,0.0540935673 C9.34466374,0.0135233918 9.39875731,0 9.46637427,0 C9.52046784,0 9.5745614,0.0135233918 9.61513158,0.0540935673 C9.65570175,0.0946637427 9.68274854,0.14875731 9.68274854,0.216374269 L9.68274854,2.38011696 L10.9539474,1.21710526 C10.9945175,1.17653509 11.0486111,1.1494883 11.1027047,1.1494883 C11.1567982,1.1494883 11.1973684,1.1630117 11.2379386,1.20358187 C11.2785088,1.24415205 11.2920322,1.28472222 11.2920322,1.33881579 C11.2920322,1.39290936 11.2649854,1.44700292 11.2108918,1.50109649 L10.1560673,2.43421053 L11.3055556,3.43494152 C11.3866959,3.52960526 11.4137427,3.58369883 11.4137427,3.6377924 Z" id="Path"></path>
                            <path d="M13.9967105,3.25913743 C14.0237573,3.28618421 14.0372807,3.32675439 14.0372807,3.38084795 C14.0372807,3.4755117 13.9696637,3.55665205 13.8479532,3.62426901 C13.7262427,3.70540936 13.5910088,3.75950292 13.4422515,3.78654971 C13.2934942,3.82711988 13.1582602,3.84064327 13.0230263,3.84064327 C12.6173246,3.84064327 12.3062865,3.71893275 12.0763889,3.48903509 C11.8464912,3.24561404 11.7247807,2.92105263 11.7247807,2.50182749 C11.7247807,2.23135965 11.7788743,2.00146199 11.873538,1.79861111 C11.9682018,1.59576023 12.1169591,1.43347953 12.3062865,1.3252924 C12.495614,1.21710526 12.7119883,1.1494883 12.941886,1.1494883 C13.2799708,1.1494883 13.5504386,1.25767544 13.7532895,1.47404971 C13.9561404,1.69042398 14.0508041,1.9879386 14.0508041,2.36659357 C14.0508041,2.43421053 14.0372807,2.48830409 14.0102339,2.51535088 C13.9831871,2.54239766 13.9290936,2.56944444 13.875,2.56944444 L12.1575292,2.56944444 C12.184576,3.17799708 12.4820906,3.48903509 13.0230263,3.48903509 C13.1582602,3.48903509 13.2799708,3.4755117 13.3746345,3.43494152 C13.4692982,3.39437135 13.5774854,3.34027778 13.6991959,3.28618421 C13.7938596,3.23209064 13.8479532,3.20504386 13.8885234,3.20504386 C13.9290936,3.20504386 13.9561404,3.23209064 13.9967105,3.25913743 Z M12.4144737,1.70394737 C12.2792398,1.85270468 12.1980994,2.04203216 12.1710526,2.3125 L13.6856725,2.3125 C13.6721491,2.05555556 13.6180556,1.85270468 13.4828216,1.70394737 C13.3475877,1.55519006 13.185307,1.4875731 12.9554094,1.4875731 C12.7255117,1.4875731 12.5497076,1.55519006 12.4144737,1.70394737 Z" id="Shape"></path>
                            <path d="M16.0657895,3.66483918 C16.0657895,3.71893275 16.0387427,3.77302632 15.9981725,3.8000731 C15.9576023,3.82711988 15.8899854,3.84064327 15.7953216,3.84064327 L15.6465643,3.82711988 C15.3625731,3.8000731 15.1461988,3.71893275 15.0109649,3.57017544 C14.875731,3.42141813 14.808114,3.19152047 14.808114,2.89400585 L14.808114,1.55519006 L14.4565058,1.55519006 C14.4024123,1.55519006 14.3483187,1.54166667 14.3212719,1.51461988 C14.2807018,1.4875731 14.2671784,1.44700292 14.2671784,1.39290936 C14.2671784,1.33881579 14.2807018,1.29824561 14.3212719,1.27119883 C14.3483187,1.24415205 14.4024123,1.21710526 14.4565058,1.21710526 L14.808114,1.21710526 L14.808114,0.608552632 C14.808114,0.540935673 14.8216374,0.486842105 14.8622076,0.44627193 C14.9027778,0.405701754 14.9568713,0.392178363 15.0244883,0.392178363 C15.0921053,0.392178363 15.1461988,0.405701754 15.1732456,0.44627193 C15.2138158,0.486842105 15.2273392,0.540935673 15.2273392,0.608552632 L15.2273392,1.21710526 L15.8223684,1.21710526 C15.876462,1.21710526 15.9305556,1.23062865 15.9576023,1.27119883 C15.9846491,1.29824561 16.0116959,1.35233918 16.0116959,1.39290936 C16.0116959,1.44700292 15.9981725,1.4875731 15.9576023,1.51461988 C15.9305556,1.54166667 15.876462,1.55519006 15.8223684,1.55519006 L15.2273392,1.55519006 L15.2273392,2.92105263 C15.2273392,3.11038012 15.2679094,3.25913743 15.3490497,3.34027778 C15.4301901,3.42141813 15.5519006,3.4755117 15.7141813,3.48903509 L15.8629386,3.50255848 C15.9981725,3.51608187 16.0657895,3.57017544 16.0657895,3.66483918 Z" id="Path"></path>
                            <path d="M20.0010965,1.25767544 C20.0281433,1.28472222 20.0551901,1.33881579 20.0551901,1.37938596 L20.0551901,3.61074561 C20.0551901,3.67836257 20.0281433,3.73245614 19.9875731,3.77302632 C19.9470029,3.81359649 19.8929094,3.82711988 19.8388158,3.82711988 C19.7711988,3.82711988 19.7171053,3.81359649 19.6765351,3.77302632 C19.6359649,3.73245614 19.6089181,3.67836257 19.6089181,3.61074561 L19.6089181,1.54166667 L18.4459064,1.54166667 L18.4459064,3.61074561 C18.4459064,3.67836257 18.4188596,3.73245614 18.3782895,3.77302632 C18.3377193,3.81359649 18.2836257,3.82711988 18.2295322,3.82711988 C18.1619152,3.82711988 18.1078216,3.81359649 18.0672515,3.77302632 C18.0266813,3.73245614 17.9996345,3.67836257 17.9996345,3.61074561 L17.9996345,1.54166667 L17.6480263,1.54166667 C17.5939327,1.54166667 17.5398392,1.52814327 17.5127924,1.50109649 C17.4857456,1.47404971 17.4586988,1.43347953 17.4586988,1.37938596 C17.4586988,1.3252924 17.4722222,1.28472222 17.5127924,1.25767544 C17.5398392,1.23062865 17.5939327,1.20358187 17.6480263,1.20358187 L17.9996345,1.20358187 L17.9996345,1.10891813 C17.9996345,0.784356725 18.0807749,0.540935673 18.2430556,0.351608187 C18.4053363,0.162280702 18.6352339,0.0676169591 18.9327485,0.0405701754 L19.0544591,0.0270467836 C19.2302632,0.0135233918 19.3114035,0.0676169591 19.3114035,0.189327485 C19.3114035,0.29751462 19.2573099,0.351608187 19.1355994,0.365131579 L19.0138889,0.378654971 C18.8245614,0.392178363 18.6893275,0.44627193 18.5811404,0.554459064 C18.4864766,0.662646199 18.432383,0.811403509 18.432383,1.02777778 L18.432383,1.20358187 L19.8523392,1.20358187 C19.9199561,1.21710526 19.9605263,1.23062865 20.0010965,1.25767544 Z M20.0281433,0.135233918 C20.0822368,0.189327485 20.1092836,0.243421053 20.1092836,0.324561404 C20.1092836,0.405701754 20.0822368,0.473318713 20.0281433,0.527412281 C19.9740497,0.581505848 19.9064327,0.608552632 19.8252924,0.608552632 C19.744152,0.608552632 19.6765351,0.581505848 19.6224415,0.527412281 C19.568348,0.473318713 19.5413012,0.405701754 19.5413012,0.324561404 C19.5413012,0.243421053 19.568348,0.175804094 19.6224415,0.135233918 C19.6765351,0.0811403509 19.744152,0.0540935673 19.8252924,0.0540935673 C19.9064327,0.0676169591 19.9740497,0.0811403509 20.0281433,0.135233918 Z" id="Shape"></path>
                            <path d="M22.9086257,1.1630117 C22.9627193,1.1630117 23.0168129,1.17653509 23.057383,1.21710526 C23.0979532,1.25767544 23.125,1.29824561 23.125,1.35233918 C23.125,1.37938596 23.1114766,1.40643275 23.0979532,1.43347953 L21.5968567,4.66557018 C21.5833333,4.70614035 21.5562865,4.73318713 21.5157164,4.76023392 C21.4886696,4.7872807 21.4480994,4.7872807 21.4075292,4.7872807 C21.3534357,4.7872807 21.3128655,4.77375731 21.2722953,4.73318713 C21.2317251,4.69261696 21.2046784,4.65204678 21.2046784,4.59795322 C21.2046784,4.57090643 21.2182018,4.54385965 21.2317251,4.51681287 L21.6103801,3.70540936 L20.5555556,1.41995614 C20.5420322,1.39290936 20.5285088,1.36586257 20.5285088,1.33881579 C20.5285088,1.28472222 20.5555556,1.24415205 20.5961257,1.20358187 C20.6502193,1.1630117 20.6907895,1.1494883 20.7584064,1.1494883 C20.7989766,1.1494883 20.8260234,1.1630117 20.8665936,1.17653509 C20.9071637,1.19005848 20.9206871,1.23062865 20.9477339,1.27119883 L21.8402778,3.27266082 L22.7328216,1.28472222 C22.7598684,1.20358187 22.8274854,1.1630117 22.9086257,1.1630117 Z" id="Path"></path>
                            <path d="M25.5862573,2.17726608 L25.5862573,3.62426901 C25.5862573,3.69188596 25.5727339,3.74597953 25.5321637,3.77302632 C25.4915936,3.81359649 25.4375,3.82711988 25.3834064,3.82711988 C25.3157895,3.82711988 25.2616959,3.81359649 25.2346491,3.77302632 C25.1940789,3.73245614 25.1805556,3.67836257 25.1805556,3.62426901 L25.1805556,3.36732456 C25.1129386,3.51608187 25.0047515,3.6377924 24.8695175,3.71893275 C24.7342836,3.8000731 24.5720029,3.84064327 24.3826754,3.84064327 C24.2203947,3.84064327 24.058114,3.81359649 23.9228801,3.73245614 C23.7876462,3.66483918 23.6659357,3.57017544 23.5847953,3.44846491 C23.503655,3.32675439 23.4630848,3.19152047 23.4630848,3.04276316 C23.4630848,2.85343567 23.5171784,2.69115497 23.6118421,2.58296784 C23.7065058,2.4747807 23.8687865,2.39364035 24.0986842,2.35307018 C24.3285819,2.29897661 24.6396199,2.28545322 25.0453216,2.28545322 L25.1670322,2.28545322 L25.1670322,2.10964912 C25.1670322,1.89327485 25.126462,1.74451754 25.0317982,1.63633041 C24.9506579,1.54166667 24.8019006,1.4875731 24.6125731,1.4875731 C24.369152,1.4875731 24.125731,1.55519006 23.8823099,1.69042398 C23.7876462,1.74451754 23.7200292,1.78508772 23.6794591,1.78508772 C23.6388889,1.78508772 23.5983187,1.77156433 23.5712719,1.73099415 C23.5442251,1.70394737 23.5307018,1.66337719 23.5307018,1.60928363 C23.5307018,1.55519006 23.5442251,1.51461988 23.5712719,1.47404971 C23.5983187,1.43347953 23.6524123,1.39290936 23.7200292,1.36586257 C23.8417398,1.29824561 23.9904971,1.24415205 24.1392544,1.20358187 C24.2880117,1.1630117 24.4502924,1.13596491 24.6125731,1.13596491 C25.2616959,1.1494883 25.5862573,1.4875731 25.5862573,2.17726608 Z M24.9506579,3.2997076 C25.0858918,3.15095029 25.1535088,2.9751462 25.1535088,2.74524854 L25.1535088,2.59649123 L25.058845,2.59649123 C24.747807,2.59649123 24.504386,2.61001462 24.3421053,2.6370614 C24.1798246,2.66410819 24.058114,2.70467836 23.9904971,2.77229532 C23.9228801,2.83991228 23.8823099,2.92105263 23.8823099,3.04276316 C23.8823099,3.17799708 23.9364035,3.2997076 24.0310673,3.38084795 C24.125731,3.4755117 24.2609649,3.51608187 24.4097222,3.51608187 C24.6396199,3.51608187 24.815424,3.43494152 24.9506579,3.2997076 Z" id="Shape"></path>
                            <path d="M27.7635234,3.66483918 C27.7635234,3.71893275 27.7364766,3.77302632 27.6959064,3.8000731 C27.6553363,3.82711988 27.5877193,3.84064327 27.4930556,3.84064327 L27.3442982,3.82711988 C27.060307,3.8000731 26.8439327,3.71893275 26.7086988,3.57017544 C26.5734649,3.42141813 26.505848,3.19152047 26.505848,2.89400585 L26.505848,1.55519006 L26.1542398,1.55519006 C26.1001462,1.55519006 26.0460526,1.54166667 26.0190058,1.51461988 C25.9919591,1.4875731 25.9649123,1.44700292 25.9649123,1.39290936 C25.9649123,1.33881579 25.9784357,1.29824561 26.0190058,1.27119883 C26.0460526,1.24415205 26.1001462,1.21710526 26.1542398,1.21710526 L26.505848,1.21710526 L26.505848,0.608552632 C26.505848,0.540935673 26.5193713,0.486842105 26.5599415,0.44627193 C26.6005117,0.405701754 26.6546053,0.392178363 26.7222222,0.392178363 C26.7898392,0.392178363 26.8439327,0.405701754 26.8709795,0.44627193 C26.9115497,0.486842105 26.9250731,0.540935673 26.9250731,0.608552632 L26.9250731,1.21710526 L27.5201023,1.21710526 C27.5741959,1.21710526 27.6282895,1.23062865 27.6553363,1.27119883 C27.682383,1.29824561 27.7094298,1.35233918 27.7094298,1.39290936 C27.7094298,1.44700292 27.6959064,1.4875731 27.6553363,1.51461988 C27.6147661,1.54166667 27.5741959,1.55519006 27.5201023,1.55519006 L26.9250731,1.55519006 L26.9250731,2.92105263 C26.9250731,3.11038012 26.9656433,3.25913743 27.0467836,3.34027778 C27.127924,3.42141813 27.2496345,3.4755117 27.4119152,3.48903509 L27.5606725,3.50255848 C27.6959064,3.51608187 27.7635234,3.57017544 27.7635234,3.66483918 Z" id="Path"></path>
                            <path d="M28.2503655,3.78654971 C28.2097953,3.74597953 28.1827485,3.69188596 28.1827485,3.62426901 L28.1827485,1.37938596 C28.1827485,1.31176901 28.2097953,1.25767544 28.2503655,1.21710526 C28.2909357,1.17653509 28.3450292,1.1630117 28.4126462,1.1630117 C28.4802632,1.1630117 28.5343567,1.17653509 28.5614035,1.21710526 C28.5884503,1.25767544 28.6154971,1.31176901 28.6154971,1.37938596 L28.6154971,3.6377924 C28.6154971,3.70540936 28.6019737,3.75950292 28.5614035,3.8000731 C28.5208333,3.84064327 28.4667398,3.85416667 28.4126462,3.85416667 C28.3450292,3.84064327 28.2909357,3.82711988 28.2503655,3.78654971 Z" id="Path"></path>
                            <path d="M31.4824561,1.1630117 C31.5365497,1.1630117 31.5771199,1.17653509 31.6312135,1.21710526 C31.6717836,1.25767544 31.6988304,1.29824561 31.6988304,1.35233918 C31.6988304,1.37938596 31.685307,1.40643275 31.6717836,1.43347953 L30.1706871,4.66557018 C30.1571637,4.70614035 30.130117,4.73318713 30.0895468,4.76023392 C30.0625,4.7872807 30.0219298,4.7872807 29.9813596,4.7872807 C29.9272661,4.7872807 29.8866959,4.77375731 29.8461257,4.73318713 C29.8055556,4.69261696 29.7785088,4.65204678 29.7785088,4.59795322 C29.7785088,4.57090643 29.7920322,4.54385965 29.8055556,4.51681287 L30.1842105,3.70540936 L29.129386,1.41995614 C29.1158626,1.39290936 29.1023392,1.36586257 29.1023392,1.33881579 C29.1023392,1.28472222 29.129386,1.24415205 29.1699561,1.20358187 C29.2240497,1.1630117 29.2646199,1.1494883 29.3322368,1.1494883 C29.372807,1.1494883 29.3998538,1.1630117 29.440424,1.17653509 C29.4674708,1.20358187 29.4945175,1.23062865 29.5215643,1.27119883 L30.4141082,3.27266082 L31.306652,1.28472222 C31.3336988,1.20358187 31.4013158,1.1630117 31.4824561,1.1630117 Z" id="Path"></path>
                            <path d="M32.2938596,3.78654971 C32.2532895,3.74597953 32.2262427,3.69188596 32.2262427,3.62426901 L32.2262427,0.229897661 C32.2262427,0.162280702 32.2532895,0.108187135 32.2938596,0.0676169591 C32.3344298,0.0270467836 32.3885234,0.0135233918 32.4561404,0.0135233918 C32.5102339,0.0135233918 32.5643275,0.0270467836 32.6048977,0.0676169591 C32.6454678,0.108187135 32.6725146,0.162280702 32.6725146,0.229897661 L32.6725146,3.62426901 C32.6725146,3.69188596 32.6454678,3.74597953 32.6048977,3.78654971 C32.5643275,3.82711988 32.5102339,3.84064327 32.4561404,3.84064327 C32.3885234,3.84064327 32.3344298,3.82711988 32.2938596,3.78654971 Z" id="Path"></path>
                            <path d="M35.5124269,2.17726608 L35.5124269,3.62426901 C35.5124269,3.69188596 35.4989035,3.74597953 35.4583333,3.77302632 C35.4177632,3.81359649 35.3636696,3.82711988 35.309576,3.82711988 C35.2554825,3.82711988 35.1878655,3.81359649 35.1608187,3.77302632 C35.1202485,3.73245614 35.1067251,3.67836257 35.1067251,3.62426901 L35.1067251,3.36732456 C35.0391082,3.51608187 34.9309211,3.6377924 34.7956871,3.71893275 C34.6604532,3.8000731 34.4981725,3.84064327 34.308845,3.84064327 C34.1465643,3.84064327 33.9842836,3.81359649 33.8490497,3.73245614 C33.7138158,3.66483918 33.5921053,3.57017544 33.5109649,3.44846491 C33.4298246,3.32675439 33.3892544,3.19152047 33.3892544,3.04276316 C33.3892544,2.85343567 33.443348,2.69115497 33.5380117,2.58296784 C33.6326754,2.4747807 33.7949561,2.39364035 34.0248538,2.35307018 C34.2547515,2.29897661 34.5657895,2.28545322 34.9714912,2.28545322 L35.0932018,2.28545322 L35.0932018,2.10964912 C35.0932018,1.89327485 35.0526316,1.74451754 34.9579678,1.63633041 C34.8768275,1.54166667 34.7280702,1.4875731 34.5387427,1.4875731 C34.2953216,1.4875731 34.0519006,1.55519006 33.8084795,1.69042398 C33.7138158,1.74451754 33.6461988,1.78508772 33.6056287,1.78508772 C33.5650585,1.78508772 33.5244883,1.77156433 33.4974415,1.73099415 C33.4703947,1.70394737 33.4568713,1.66337719 33.4568713,1.60928363 C33.4568713,1.55519006 33.4703947,1.51461988 33.4974415,1.47404971 C33.5244883,1.43347953 33.5785819,1.39290936 33.6461988,1.36586257 C33.7679094,1.29824561 33.9166667,1.24415205 34.065424,1.20358187 C34.2277047,1.1630117 34.376462,1.13596491 34.5387427,1.13596491 C35.1878655,1.1494883 35.5124269,1.4875731 35.5124269,2.17726608 Z M34.8903509,3.2997076 C35.0255848,3.15095029 35.0932018,2.9751462 35.0932018,2.74524854 L35.0932018,2.59649123 L34.998538,2.59649123 C34.6875,2.59649123 34.4440789,2.61001462 34.2817982,2.6370614 C34.1195175,2.66410819 33.997807,2.70467836 33.9301901,2.77229532 C33.8625731,2.83991228 33.8220029,2.92105263 33.8220029,3.04276316 C33.8220029,3.17799708 33.8760965,3.2997076 33.9707602,3.38084795 C34.0789474,3.4755117 34.2006579,3.51608187 34.3494152,3.51608187 C34.5793129,3.51608187 34.755117,3.43494152 34.8903509,3.2997076 Z" id="Shape"></path>
                            <path d="M39.9480994,1.21710526 C39.9886696,1.25767544 40.002193,1.31176901 40.002193,1.36586257 L40.002193,3.62426901 C40.002193,4.01644737 39.9075292,4.3004386 39.7046784,4.50328947 C39.5018275,4.70614035 39.2043129,4.80080409 38.8121345,4.80080409 C38.4334795,4.80080409 38.1089181,4.71966374 37.8654971,4.57090643 C37.7437865,4.50328947 37.6761696,4.42214912 37.6761696,4.32748538 C37.6761696,4.27339181 37.689693,4.23282164 37.7167398,4.20577485 C37.7437865,4.17872807 37.7843567,4.15168129 37.8249269,4.15168129 C37.8654971,4.15168129 37.9195906,4.17872807 38.0142544,4.23282164 C38.1359649,4.3004386 38.2576754,4.35453216 38.379386,4.38157895 C38.5010965,4.42214912 38.6498538,4.43567251 38.8121345,4.43567251 C39.0690789,4.43567251 39.2584064,4.36805556 39.380117,4.23282164 C39.5018275,4.09758772 39.5694444,3.90826023 39.5694444,3.65131579 L39.5694444,3.19152047 C39.4883041,3.35380117 39.380117,3.48903509 39.2313596,3.57017544 C39.0826023,3.65131579 38.8932749,3.70540936 38.690424,3.70540936 C38.4605263,3.70540936 38.2576754,3.65131579 38.0818713,3.54312865 C37.9060673,3.43494152 37.7708333,3.28618421 37.6761696,3.08333333 C37.5815058,2.89400585 37.5274123,2.66410819 37.5274123,2.40716374 C37.5274123,2.1502193 37.5815058,1.92032164 37.6761696,1.73099415 C37.7708333,1.54166667 37.9060673,1.37938596 38.0818713,1.27119883 C38.2576754,1.1630117 38.4605263,1.10891813 38.690424,1.10891813 C38.8932749,1.10891813 39.0826023,1.1494883 39.2313596,1.24415205 C39.380117,1.33881579 39.5018275,1.46052632 39.5829678,1.62280702 L39.5829678,1.37938596 C39.5829678,1.31176901 39.5964912,1.25767544 39.6370614,1.23062865 C39.6776316,1.19005848 39.7317251,1.17653509 39.7993421,1.17653509 C39.8669591,1.17653509 39.9075292,1.17653509 39.9480994,1.21710526 Z M39.3665936,3.12390351 C39.5153509,2.96162281 39.5829678,2.73172515 39.5829678,2.43421053 C39.5829678,2.1502193 39.5153509,1.92032164 39.3665936,1.75804094 C39.2313596,1.59576023 39.0285088,1.51461988 38.7715643,1.51461988 C38.5146199,1.51461988 38.3252924,1.59576023 38.1765351,1.75804094 C38.0277778,1.92032164 37.9601608,2.1502193 37.9601608,2.43421053 C37.9601608,2.73172515 38.0277778,2.94809942 38.1765351,3.12390351 C38.3252924,3.28618421 38.5146199,3.36732456 38.7715643,3.36732456 C39.0285088,3.38084795 39.2178363,3.2997076 39.3665936,3.12390351 Z" id="Shape"></path>
                            <path d="M42.9232456,3.25913743 C42.9502924,3.28618421 42.9638158,3.32675439 42.9638158,3.38084795 C42.9638158,3.4755117 42.8961988,3.55665205 42.7744883,3.62426901 C42.6527778,3.70540936 42.5175439,3.75950292 42.3687865,3.78654971 C42.2200292,3.82711988 42.0847953,3.84064327 41.9495614,3.84064327 C41.5438596,3.84064327 41.2328216,3.71893275 41.002924,3.48903509 C40.7730263,3.24561404 40.6513158,2.92105263 40.6513158,2.50182749 C40.6513158,2.23135965 40.7054094,2.00146199 40.8000731,1.79861111 C40.9082602,1.59576023 41.0434942,1.43347953 41.2328216,1.3252924 C41.4221491,1.21710526 41.6385234,1.1494883 41.8684211,1.1494883 C42.2065058,1.1494883 42.4769737,1.25767544 42.6798246,1.47404971 C42.8826754,1.69042398 42.9773392,1.9879386 42.9773392,2.36659357 C42.9773392,2.43421053 42.9638158,2.48830409 42.936769,2.51535088 C42.9097222,2.54239766 42.8556287,2.56944444 42.8015351,2.56944444 L41.0840643,2.56944444 C41.1111111,3.17799708 41.4086257,3.48903509 41.9495614,3.48903509 C42.0847953,3.48903509 42.2065058,3.4755117 42.3011696,3.43494152 C42.3958333,3.39437135 42.5040205,3.34027778 42.625731,3.28618421 C42.7203947,3.23209064 42.7744883,3.20504386 42.8150585,3.20504386 C42.8556287,3.20504386 42.8961988,3.23209064 42.9232456,3.25913743 Z M41.3410088,1.70394737 C41.2057749,1.85270468 41.1246345,2.04203216 41.0975877,2.3125 L42.6122076,2.3125 C42.5986842,2.05555556 42.5445906,1.85270468 42.4093567,1.70394737 C42.2741228,1.55519006 42.1118421,1.4875731 41.8819444,1.4875731 C41.6520468,1.4875731 41.4762427,1.55519006 41.3410088,1.70394737 Z" id="Shape"></path>
                            <path d="M43.6805556,3.78654971 C43.6399854,3.74597953 43.6129386,3.69188596 43.6129386,3.62426901 L43.6129386,0.229897661 C43.6129386,0.162280702 43.6399854,0.108187135 43.6805556,0.0676169591 C43.7211257,0.0270467836 43.7752193,0.0135233918 43.8428363,0.0135233918 C43.8969298,0.0135233918 43.9510234,0.0270467836 43.9915936,0.0676169591 C44.0321637,0.108187135 44.0592105,0.162280702 44.0592105,0.229897661 L44.0592105,3.62426901 C44.0592105,3.69188596 44.0321637,3.74597953 43.9915936,3.78654971 C43.9510234,3.82711988 43.8969298,3.84064327 43.8428363,3.84064327 C43.7752193,3.84064327 43.7211257,3.82711988 43.6805556,3.78654971 Z" id="Path"></path>
                            <path d="M45.2627924,3.78654971 C45.1140351,3.74597953 44.9788012,3.69188596 44.870614,3.62426901 C44.8029971,3.58369883 44.7624269,3.54312865 44.7353801,3.50255848 C44.7083333,3.4619883 44.6948099,3.42141813 44.6948099,3.36732456 C44.6948099,3.32675439 44.7083333,3.28618421 44.7353801,3.25913743 C44.7624269,3.23209064 44.8029971,3.21856725 44.8435673,3.21856725 C44.8841374,3.21856725 44.9517544,3.24561404 45.0328947,3.2997076 C45.1410819,3.36732456 45.249269,3.40789474 45.3439327,3.44846491 C45.4521199,3.48903509 45.5738304,3.50255848 45.7361111,3.50255848 C45.9254386,3.50255848 46.0741959,3.4755117 46.182383,3.39437135 C46.2905702,3.32675439 46.3446637,3.23209064 46.3446637,3.09685673 C46.3446637,3.01571637 46.3311404,2.96162281 46.2905702,2.90752924 C46.25,2.85343567 46.182383,2.8128655 46.0877193,2.78581871 C45.9930556,2.74524854 45.8442982,2.70467836 45.6684942,2.67763158 C45.3574561,2.61001462 45.1275585,2.51535088 44.9923246,2.40716374 C44.8570906,2.29897661 44.7894737,2.13669591 44.7894737,1.94736842 C44.7894737,1.79861111 44.8300439,1.66337719 44.9111842,1.54166667 C44.9923246,1.41995614 45.1140351,1.3252924 45.2627924,1.25767544 C45.4115497,1.19005848 45.5873538,1.1494883 45.7766813,1.1494883 C45.9119152,1.1494883 46.0471491,1.1630117 46.182383,1.20358187 C46.317617,1.24415205 46.4258041,1.29824561 46.5204678,1.36586257 C46.6421784,1.44700292 46.6962719,1.54166667 46.6962719,1.63633041 C46.6962719,1.67690058 46.6827485,1.71747076 46.6557018,1.75804094 C46.628655,1.78508772 46.5880848,1.8121345 46.5475146,1.8121345 C46.5069444,1.8121345 46.4393275,1.78508772 46.3581871,1.71747076 C46.2635234,1.6498538 46.1688596,1.60928363 46.0741959,1.56871345 C45.9795322,1.52814327 45.871345,1.51461988 45.7496345,1.51461988 C45.5873538,1.51461988 45.4521199,1.55519006 45.3439327,1.62280702 C45.249269,1.70394737 45.1951754,1.79861111 45.1951754,1.92032164 C45.1951754,2.00146199 45.2086988,2.05555556 45.249269,2.10964912 C45.2898392,2.16374269 45.3439327,2.20431287 45.4385965,2.23135965 C45.5332602,2.25840643 45.6549708,2.29897661 45.8172515,2.33954678 C46.0606725,2.39364035 46.25,2.44773392 46.3852339,2.51535088 C46.5204678,2.58296784 46.6151316,2.66410819 46.6692251,2.74524854 C46.7233187,2.83991228 46.7503655,2.96162281 46.7503655,3.09685673 C46.7503655,3.32675439 46.6557018,3.50255848 46.4663743,3.6377924 C46.2770468,3.77302632 46.0336257,3.84064327 45.7225877,3.84064327 C45.5738304,3.85416667 45.4115497,3.82711988 45.2627924,3.78654971 Z" id="Path"></path>
                            <path d="M47.4265351,0.527412281 C47.3724415,0.473318713 47.3453947,0.405701754 47.3453947,0.324561404 C47.3453947,0.243421053 47.3724415,0.175804094 47.4265351,0.135233918 C47.4806287,0.0811403509 47.5482456,0.0540935673 47.629386,0.0540935673 C47.7105263,0.0540935673 47.7781433,0.0811403509 47.8322368,0.135233918 C47.8863304,0.189327485 47.9133772,0.243421053 47.9133772,0.324561404 C47.9133772,0.405701754 47.8863304,0.473318713 47.8322368,0.527412281 C47.7781433,0.581505848 47.7105263,0.608552632 47.629386,0.608552632 C47.5482456,0.59502924 47.4806287,0.581505848 47.4265351,0.527412281 Z" id="Path"></path>
                            <path d="M47.4806287,3.78654971 C47.4400585,3.74597953 47.4130117,3.69188596 47.4130117,3.62426901 L47.4130117,1.37938596 C47.4130117,1.31176901 47.4400585,1.25767544 47.4806287,1.21710526 C47.5211988,1.17653509 47.5752924,1.1630117 47.6429094,1.1630117 C47.7105263,1.1630117 47.7646199,1.17653509 47.7916667,1.21710526 C47.8187135,1.25767544 47.8457602,1.31176901 47.8457602,1.37938596 L47.8457602,3.6377924 C47.8457602,3.70540936 47.8322368,3.75950292 47.7916667,3.8000731 C47.7510965,3.84064327 47.6970029,3.85416667 47.6429094,3.85416667 C47.5752924,3.84064327 47.5211988,3.82711988 47.4806287,3.78654971 Z" id="Path"></path>
                            <path d="M50.9020468,2.17726608 L50.9020468,3.62426901 C50.9020468,3.69188596 50.8885234,3.74597953 50.8479532,3.78654971 C50.807383,3.82711988 50.7532895,3.84064327 50.6856725,3.84064327 C50.6180556,3.84064327 50.563962,3.82711988 50.5233918,3.78654971 C50.4828216,3.74597953 50.4692982,3.69188596 50.4692982,3.62426901 L50.4692982,2.20431287 C50.4692982,1.96089181 50.4287281,1.78508772 50.3340643,1.67690058 C50.2394006,1.56871345 50.0906433,1.51461988 49.8877924,1.51461988 C49.6443713,1.51461988 49.4550439,1.58223684 49.3198099,1.73099415 C49.1710526,1.87975146 49.1034357,2.06907895 49.1034357,2.32602339 L49.1034357,3.62426901 C49.1034357,3.69188596 49.0899123,3.74597953 49.0493421,3.78654971 C49.0087719,3.82711988 48.9546784,3.84064327 48.8870614,3.84064327 C48.8194444,3.84064327 48.7653509,3.82711988 48.7247807,3.78654971 C48.6842105,3.74597953 48.6706871,3.69188596 48.6706871,3.62426901 L48.6706871,1.37938596 C48.6706871,1.31176901 48.6842105,1.25767544 48.7247807,1.23062865 C48.7653509,1.19005848 48.8194444,1.17653509 48.8870614,1.17653509 C48.9546784,1.17653509 48.9952485,1.19005848 49.0358187,1.23062865 C49.0763889,1.27119883 49.0899123,1.3252924 49.0899123,1.37938596 L49.0899123,1.6498538 C49.1710526,1.4875731 49.2927632,1.36586257 49.4415205,1.28472222 C49.5902778,1.20358187 49.7660819,1.1630117 49.9689327,1.1630117 C50.5910088,1.1494883 50.9020468,1.50109649 50.9020468,2.17726608 Z" id="Path"></path>
                        </g>
                    </g>
                </g>
            </g>
        </g>
    </g>
</svg>